<?xml version="1.0" encoding="UTF-8" standalone="no"?>
<svg width="36px" height="32px" viewBox="0 0 36 32" version="1.1" xmlns="http://www.w3.org/2000/svg" xmlns:xlink="http://www.w3.org/1999/xlink">
    <!-- Generator: Sketch 46.2 (44496) - http://www.bohemiancoding.com/sketch -->
    <title>Group 8 Copy 3</title>
    <desc>Created with Sketch.</desc>
    <defs></defs>
    <g id="ELT-page" stroke="none" stroke-width="1" fill="none" fill-rule="evenodd">
        <g id="02_c2c" transform="translate(-50.000000, -717.000000)" fill="#000000">
            <g id="Group-2" transform="translate(20.000000, 551.000000)">
                <g id="Group-8-Copy-3" transform="translate(30.000000, 166.000000)">
                    <path d="M3.13635364,21.07603 C3.58440415,21.2257613 3.96748735,21.1968974 4.43704429,21.1968974 L12.620687,21.1968974 C12.7860177,22.5498909 13.8810531,23.4518865 15.2032502,23.4518865 L20.8661607,23.4518865 C22.1879098,23.4518865 23.2833933,22.5498909 23.4487239,21.1968974 L31.6323667,21.1968974 C32.0934106,21.1968974 32.7076879,21.2248593 33.1557384,21.072873 L33.1557384,29.765856 L3.13635364,29.765856 L3.13635364,21.07603 Z M21.3782825,17.2132337 C21.1901013,17.1767029 14.8654201,17.152349 14.6709662,17.1902328 C13.578171,17.4188887 12.7573424,18.4909105 12.6139663,19.3929062 L4.43704429,19.3929062 C3.05928895,19.3929062 1.79220208,18.3619251 1.79220208,16.9746559 L1.79220208,6.31396945 L34.0518395,6.31396945 L34.0518395,16.9746559 C34.0518395,18.3619251 33.0034013,19.3929062 31.6251979,19.3929062 L23.4411071,19.3929062 C23.298179,18.4909105 22.4769024,17.4432426 21.3782825,17.2132337 L21.3782825,17.2132337 Z M21.5064249,20.8446681 C21.5064249,21.28845 21.1493287,21.6478952 20.708447,21.6478952 L15.1355946,21.6478952 C14.6951609,21.6478952 14.3376166,21.28845 14.3376166,20.8446681 L14.3376166,19.7451355 C14.3376166,19.3013536 14.6951609,18.9419083 15.1355946,18.9419083 L20.708447,18.9419083 C21.1493287,18.9419083 21.5064249,19.3013536 21.5064249,19.7451355 L21.5064249,20.8446681 Z M13.8895661,4.50997818 L13.8895661,2.1499066 C13.8895661,2.02362721 13.9370595,1.80399127 14.0625136,1.80399127 L21.9934558,1.80399127 C22.1184619,1.80399127 22.402526,2.02362721 22.402526,2.1499066 L22.402526,4.50997818 L13.8895661,4.50997818 Z M34.3385918,4.50997818 L24.194728,4.50997818 L24.194728,2.14314163 C24.194728,1.0124901 23.1167185,0 21.9934558,0 L14.0625136,0 C12.9392509,0 12.097364,1.0124901 12.097364,2.14314163 L12.097364,4.50997818 L1.60536501,4.50997818 C0.793049419,4.50997818 0,5.32357824 0,6.14168828 L0,16.9746559 C0,18.0561486 0.448050519,19.1096795 1.34415156,19.9016317 L1.34415156,30.0360037 C1.34415156,30.8843305 1.95170806,31.5698472 2.79449109,31.5698472 L33.06344,31.5698472 C34.0191318,31.5698472 34.9479405,30.791876 34.9479405,29.8303487 L34.9479405,19.9016317 C35.395991,19.1033656 35.8440415,18.0728355 35.8440415,16.9746559 L35.8440415,6.26030071 C35.8440415,5.37679598 35.2163228,4.50997818 34.3385918,4.50997818 L34.3385918,4.50997818 Z" id="Fill-4"></path>
                </g>
            </g>
        </g>
    </g>
</svg>