<?xml version="1.0" encoding="UTF-8" standalone="no"?>
<svg width="36px" height="36px" viewBox="0 0 36 36" version="1.1" xmlns="http://www.w3.org/2000/svg" xmlns:xlink="http://www.w3.org/1999/xlink">
    <!-- Generator: Sketch 46.2 (44496) - http://www.bohemiancoding.com/sketch -->
    <title>Can ban</title>
    <desc>Created with Sketch.</desc>
    <defs>
        <rect id="path-1" x="0" y="0" width="40" height="40"></rect>
    </defs>
    <g id="ELT-page" stroke="none" stroke-width="1" fill="none" fill-rule="evenodd">
        <g id="icon_listing" transform="translate(-68.000000, -71.000000)">
            <g id="Can-ban" transform="translate(66.000000, 69.000000)">
                <mask id="mask-2" fill="white">
                    <use xlink:href="#path-1"></use>
                </mask>
                <g id="Mask"></g>
                <g id="box-closed-(1)" mask="url(#mask-2)" stroke="#000000" fill-rule="nonzero" stroke-width="0.4" fill="#000000" stroke-linecap="round" stroke-linejoin="round">
                    <g transform="translate(20.000000, 20.500000) scale(-1, 1) translate(-20.000000, -20.500000) translate(3.000000, 3.000000)" id="Shape">
                        <path d="M33.9616802,6.68137061 L33.9853631,6.61874158 L17.0077268,0 L0.0577310369,6.68738902 L0.00238713754,6.66544691 L0.00238713754,6.70832805 L0,6.70964458 L0.00238713754,6.71685413 L0.00238713754,27.9474695 L17,34.5964912 L34,27.9471561 L34,6.66576037 L33.9616802,6.68137061 Z M16.9918963,1.30116676 L22.7503002,3.3592734 L7.05267223,9.44137381 L1.73519771,7.34809711 L16.9918963,1.30116676 Z M16.3941068,33.0966544 L10.0279251,30.5316852 L6.83299275,29.3338344 L1.21718887,27.1228853 L1.21718887,8.44689497 L6.77664374,10.6354004 L6.77664374,15.305307 L7.27210042,15.1672598 L7.60692787,15.626414 L8.07311071,15.517832 L8.5245938,15.9937875 L8.91859713,15.8583107 L9.55464365,16.4877983 L9.55464365,11.7288068 L10.0494721,11.9237781 L16.3941696,14.4210402 L16.3941696,33.0966544 L16.3941068,33.0966544 Z M17.001382,13.3581647 L10.7943219,10.9142532 L26.1029093,4.72256766 L32.4165112,7.28941765 L17.001382,13.3581647 Z M32.7860149,27.1228853 L17.6080919,33.0966544 L17.6080919,14.4211029 L32.7845701,8.44651882 L32.7845701,27.1224464 L32.7860149,27.1228853 L32.7860149,27.1228853 Z"></path>
                    </g>
                </g>
            </g>
        </g>
    </g>
</svg>