<?xml version="1.0" encoding="UTF-8" standalone="no"?>
<svg width="34px" height="34px" viewBox="0 0 34 34" version="1.1" xmlns="http://www.w3.org/2000/svg" xmlns:xlink="http://www.w3.org/1999/xlink">
    <!-- Generator: Sketch 46.2 (44496) - http://www.bohemiancoding.com/sketch -->
    <title>clock</title>
    <desc>Created with Sketch.</desc>
    <defs></defs>
    <g id="ELT-page" stroke="none" stroke-width="1" fill="none" fill-rule="evenodd">
        <g id="02_c2c" transform="translate(-51.000000, -373.000000)" fill-rule="nonzero" fill="#000000">
            <g id="Group-2" transform="translate(20.000000, 290.000000)">
                <g id="clock" transform="translate(31.000000, 83.000000)">
                    <path d="M32.6428889,10.3786425 C30.8503333,6.19718015 27.8042222,3.15612166 23.5901667,1.3578566 C21.4839444,0.45908538 19.2773333,0 16.9720556,0 C14.6671667,0 12.4768333,0.454749666 10.3729444,1.3578566 C6.19377778,3.15134126 3.13416667,6.19045424 1.33844444,10.3786425 C0.438611111,12.4769056 0,14.6751681 0,16.9813231 C0,19.2879228 0.438611111,21.5044175 1.33844444,23.6031252 C3.13416667,27.7913135 6.19416667,30.8486587 10.3729444,32.6425881 C12.4772222,33.545695 14.6671111,34 16.9720556,34 C19.277,34 21.4839444,33.5409146 23.5898333,32.6425881 C27.8038889,30.8442674 30.85,27.7841985 32.6429444,23.6031252 C33.5455,21.4976915 34,19.2879228 34,16.9813231 C34,14.6751681 33.5458889,12.4840206 32.6428889,10.3786425 Z M29.9291111,24.4959488 C28.5946111,26.785817 26.7663889,28.6024255 24.4638333,29.9455518 C22.1752222,31.2807849 19.6676111,31.9541546 16.9724444,31.9541546 C14.9463333,31.9541546 13.013,31.563718 11.1724444,30.7637788 C9.33194444,29.9642287 7.74283333,28.9130961 6.4135,27.5834216 C5.08416667,26.2533581 4.02611111,24.6478655 3.23494444,22.8031861 C2.44611111,20.9652325 2.06383333,19.0089919 2.06383333,16.9813787 C2.06383333,14.2843424 2.72611111,11.788083 4.05311111,9.50455152 C5.38483333,7.21268213 7.21344444,5.39412815 9.49972222,4.05489288 C11.7856111,2.7157132 14.2769444,2.04590102 16.9720556,2.04590102 C19.6676111,2.04590102 22.1747778,2.71965981 24.4634444,4.05489288 C26.766,5.39807476 28.5902778,7.21657315 29.9287222,9.50449593 C31.2671667,11.7920296 31.9362222,14.2843424 31.9362222,16.9813231 C31.9362222,19.6784149 31.2715556,22.1916837 29.9291111,24.4959488 Z" id="Shape"></path>
                    <path d="M18.0644938,16.7370153 L18.0644938,7.26850584 C18.0644938,6.70191064 17.5613417,6.24489796 16.9838054,6.24489796 C16.4436839,6.24489796 15.9591837,6.70191064 15.9591837,7.26850584 L15.9591837,16.8831982 C15.9591837,16.901553 15.9965429,16.9748629 15.9965429,17.0294903 C15.9591837,17.3585657 16.0526095,17.6327405 16.2759852,17.8522879 L21.8466246,23.317539 C22.2193813,23.6832693 22.9085498,23.6832693 23.2810282,23.317539 C23.7094062,22.8971813 23.6812337,22.2872666 23.2810282,21.891819 L18.0644938,16.7370153 Z" id="Shape"></path>
                </g>
            </g>
        </g>
    </g>
</svg>