<?xml version="1.0" encoding="UTF-8" standalone="no"?>
<svg width="34px" height="39px" viewBox="0 0 34 39" version="1.1" xmlns="http://www.w3.org/2000/svg" xmlns:xlink="http://www.w3.org/1999/xlink">
    <!-- Generator: Sketch 46.2 (44496) - http://www.bohemiancoding.com/sketch -->
    <title>Group 2</title>
    <desc>Created with Sketch.</desc>
    <defs></defs>
    <g id="ELT-page" stroke="none" stroke-width="1" fill="none" fill-rule="evenodd">
        <g id="02_c2c" transform="translate(-51.000000, -632.000000)" stroke="#000000" stroke-width="2">
            <g id="Group-2" transform="translate(20.000000, 551.000000)">
                <g transform="translate(32.000000, 82.000000)" id="Fill-1">
                    <path d="M30.6708258,25.2265045 C30.0503421,24.7719319 20.2442806,20.4924927 20.209225,19.6673069 C20.209225,19.6673069 20.1733779,19.3583362 20.3525006,18.7749536 C20.4957761,18.3972987 20.7107459,17.916834 21.0689912,17.3333431 C21.0689912,17.3333431 21.6423195,16.6124837 22.2872289,15.3082416 C23.1828423,13.4890845 24.1501499,10.5372876 23.7560575,6.89897346 C23.7560575,6.89897346 23.8635989,0.377546599 16.0173701,0 C16.0111506,0.000325004246 16.0056095,0.00108334749 15.9995031,0.00140835173 C15.9932835,0.00108334749 15.9877425,0.000325004246 15.9815229,0 C8.13529414,0.377546599 8.24283559,6.89897346 8.24283559,6.89897346 C7.8487431,10.5372876 8.81605075,13.4890845 9.7116641,15.3082416 C10.3565736,16.6124837 10.9299018,17.3333431 10.9299018,17.3333431 C11.2881471,17.916834 11.503117,18.3972987 11.6463925,18.7749536 C11.8255151,19.3583362 11.7897811,19.6673069 11.7897811,19.6673069 C11.7546124,20.4924927 1.94855092,24.7719319 1.32806728,25.2265045 C0.145789809,26.1188579 0.0383614402,27.354524 0.0383614402,27.354524 C0.0383614402,27.354524 -0.269901437,28.5662482 0.861262745,30.0055836 C1.29810042,30.5615576 1.80041285,31.0712726 2.31968766,31.5687457 C4.09655288,33.2712263 6.16618868,34.6079688 8.47103606,35.542031 C10.8583206,36.5093519 13.3929516,37 16.0048179,37 C18.6167974,37 21.1516545,36.5094603 23.5390521,35.5421393 C25.8441257,34.6082938 27.9138746,33.2715513 29.6907398,31.5691791 C30.1455576,31.133565 30.5500537,30.6586255 30.9790886,30.2078446 C32.3011361,28.8187765 31.9606447,27.354524 31.9606447,27.354524 C31.9606447,27.354524 31.8531032,26.1188579 30.6708258,25.2265045"></path>
                </g>
            </g>
        </g>
    </g>
</svg>