<?xml version="1.0" encoding="UTF-8" standalone="no"?>
<svg width="38px" height="38px" viewBox="0 0 38 38" version="1.1" xmlns="http://www.w3.org/2000/svg" xmlns:xlink="http://www.w3.org/1999/xlink">
    <!-- Generator: Sketch 46.2 (44496) - http://www.bohemiancoding.com/sketch -->
    <title>price-tag (2)</title>
    <desc>Created with Sketch.</desc>
    <defs></defs>
    <g id="ELT-page" stroke="none" stroke-width="1" fill="none" fill-rule="evenodd">
        <g id="02_c2c" transform="translate(-49.000000, -452.000000)" stroke="#000000" fill-rule="nonzero" stroke-width="0.2" fill="#000000">
            <g id="Group-2" transform="translate(20.000000, 290.000000)">
                <g id="price-tag-(2)" transform="translate(48.000000, 181.000000) scale(-1, 1) translate(-48.000000, -181.000000) translate(30.000000, 163.000000)">
                    <path d="M34.6034364,17.082728 L19.1985886,1.67791312 C18.1326992,0.612026003 16.6577433,0 15.1491908,0 L3.27276214,0 C1.4685894,0 0,1.46774252 0,3.27275517 L0,15.1483914 C0,16.6777278 0.596072716,18.115939 1.6779167,19.1985477 L17.0827644,34.6033626 C17.9840454,35.5038746 19.1825573,36 20.4545524,36 C21.7265475,36 22.9250594,35.5037979 23.8263404,34.6033626 L34.6033597,23.8263664 C35.5046406,22.9266981 36,21.7289558 36,20.4545856 C36,19.1802153 35.5047173,17.9823963 34.6034364,17.082728 Z M33.4464984,22.6694309 L22.6694792,33.4464272 C21.4837769,34.628982 19.4254813,34.628982 18.2397791,33.4464272 L2.83485464,18.0415355 C2.06144052,17.2681231 1.63634272,16.2405882 1.63634272,15.1483147 L1.63634272,3.27275517 C1.63634272,2.37070907 2.36987037,1.63641593 3.27268543,1.63641593 L15.1491908,1.63641593 C16.2262791,1.63641593 17.2809695,2.07347875 18.041574,2.83492531 L33.4464217,18.2397402 C34.0377387,18.8309793 34.363734,19.6172014 34.363734,20.4545856 C34.363734,21.291893 34.0377387,22.0781151 33.4464984,22.6694309 Z" id="Shape"></path>
                    <path d="M6.4173913,3.13043478 C4.60539364,3.13043478 3.13043478,4.6045635 3.13043478,6.41742982 C3.13043478,8.23029614 4.60539364,9.70434783 6.4173913,9.70434783 C8.22938897,9.70434783 9.70434783,8.23021911 9.70434783,6.41735279 C9.70434783,4.60448646 8.22938897,3.13043478 6.4173913,3.13043478 Z M6.4173913,8.06088882 C5.51058358,8.06088882 4.77395156,7.32340075 4.77395156,6.41735279 C4.77395156,5.51138185 5.51058358,4.77389378 6.4173913,4.77389378 C7.32419903,4.77389378 8.06083105,5.51138185 8.06083105,6.41735279 C8.06090808,7.32340075 7.32419903,8.06088882 6.4173913,8.06088882 Z" id="Shape"></path>
                    <path d="M25.1095781,24.0173012 C26.1547177,22.4165276 25.9825132,20.2338444 24.5918958,18.8253647 C23.0041024,17.2170881 20.4204252,17.2170881 18.8326318,18.8253647 C17.9099063,19.7608446 16.2998141,19.7608446 15.3770887,18.8253647 C14.4241224,17.8601048 14.4241224,16.2897301 15.3770887,15.3244701 L17.6808095,12.9910303 C17.999025,12.6687098 17.999025,12.1465923 17.6808095,11.8243491 C17.3625941,11.5020286 16.8471264,11.5020286 16.5289873,11.8243491 L14.8012157,13.5744096 L14.2252664,12.9910303 C13.907051,12.6687098 13.3915832,12.6687098 13.0734442,12.9910303 C12.7552288,13.3133509 12.7552288,13.8354684 13.0734442,14.1577116 L13.7076604,14.8001095 C12.6625209,16.4010378 12.8347253,18.5835663 14.2253428,19.9920459 C15.7622004,21.550354 18.4445418,21.5519783 19.9846068,19.9920459 C20.9073322,19.0574169 22.5174244,19.0574169 23.4401499,19.9920459 C24.3931161,20.9573058 24.3931161,22.5276806 23.4401499,23.4929405 L21.136429,25.8263803 C20.8182136,26.1487008 20.8182136,26.6708184 21.136429,26.9930615 C21.2954986,27.1541831 21.5039766,27.2347826 21.7123783,27.2347826 C21.92078,27.2347826 22.1291817,27.1541831 22.2883276,26.9930615 L24.0160992,25.243001 L24.5920485,25.8263803 C24.751118,25.9875019 24.9595961,26.0681014 25.1679978,26.0681014 C25.3763995,26.0681014 25.5848012,25.9875019 25.7439471,25.8263803 C26.0621626,25.5040598 26.0621626,24.9819423 25.7439471,24.6596991 L25.1095781,24.0173012 Z" id="Shape" transform="translate(19.408696, 19.408696) scale(-1, 1) rotate(-270.000000) translate(-19.408696, -19.408696) "></path>
                </g>
            </g>
        </g>
    </g>
</svg>