<?xml version="1.0" encoding="UTF-8" standalone="no"?>
<svg width="40px" height="39px" viewBox="0 0 40 39" version="1.1" xmlns="http://www.w3.org/2000/svg" xmlns:xlink="http://www.w3.org/1999/xlink">
    <!-- Generator: Sketch 46.2 (44496) - http://www.bohemiancoding.com/sketch -->
    <title>Can mua</title>
    <desc>Created with Sketch.</desc>
    <defs>
        <rect id="path-1" x="0" y="0" width="40" height="40"></rect>
    </defs>
    <g id="ELT-page" stroke="none" stroke-width="1" fill="none" fill-rule="evenodd">
        <g id="icon_listing" transform="translate(-13.000000, -69.000000)">
            <g id="Can-mua" transform="translate(13.000000, 69.000000)">
                <mask id="mask-2" fill="white">
                    <use xlink:href="#path-1"></use>
                </mask>
                <g id="Mask"></g>
                <g id="money" mask="url(#mask-2)" stroke="#000000" stroke-width="0.4" fill="#000000" fill-rule="nonzero">
                    <g transform="translate(20.000000, 30.000000) scale(-1, 1) translate(-20.000000, -30.000000) translate(1.000000, 21.000000)" id="Shape">
                        <path d="M37.3666667,0 L31.0333333,0 C30.6837333,0 30.4,0.283264689 30.4,0.633701765 L30.4,1.26740353 L25.4669667,1.26740353 C24.8393333,1.26740353 24.2319667,1.45117704 23.7107333,1.79971301 L18.8081,5.06961412 L13.7610667,5.06961412 C12.8636333,5.06961412 12.0301667,5.51574016 11.5311,6.26477564 C11.1067667,6.90291332 10.9858,7.6861687 11.1707333,8.41365833 L3.36236667,5.97137173 C2.83606667,5.77365678 2.25213333,5.76225015 1.68466667,5.95236067 C0.677033333,6.28822261 0,7.22800233 0,8.29198759 C0,9.28436455 0.590266667,10.1759829 1.50416667,10.5619073 L15.3159,16.4090735 C16.4147333,16.8742106 17.5769,17.1099476 18.7701,17.1099476 L18.9309667,17.1099476 C19.8847667,17.1099476 20.8284333,16.9572255 21.7467667,16.6505139 L30.4,13.5719907 L30.4,14.5751406 C30.4,14.9255777 30.6837333,15.2088424 31.0333333,15.2088424 L37.3666667,15.2088424 C37.7162667,15.2088424 38,14.9255777 38,14.5751406 L38,0.633701765 C38,0.283264689 37.7162667,0 37.3666667,0 Z M30.4,12.2266418 L21.3344667,15.4521838 C20.5567333,15.7113678 19.7486,15.8425441 18.9309667,15.8425441 L18.7701,15.8425441 C17.7479,15.8425441 16.7510333,15.6403933 15.8092667,15.2417948 L1.99753333,9.39462866 C1.55356667,9.20641924 1.26666667,8.77360093 1.26666667,8.29072019 C1.26666667,7.77425325 1.596,7.31735428 2.1185,7.14308629 C2.37753333,7.05690285 2.66126667,7.06133876 2.9507,7.16906806 L12.0738667,10.0232608 C12.0821,10.0314989 12.0928667,10.0372022 12.1017333,10.0454404 C12.3405,10.2697708 12.6153667,10.4491084 12.9181,10.5720465 C12.9307667,10.5771162 12.9434333,10.5809184 12.9561,10.585988 C13.0872,10.6373178 13.2227333,10.6766073 13.3620667,10.707025 C13.395,10.7139957 13.4273,10.7216002 13.4608667,10.7279372 C13.6147667,10.7545526 13.7705667,10.77293 13.9308,10.77293 L23.4333333,10.77293 L23.4333333,9.50552647 L13.9308,9.50552647 C13.8117333,9.50552647 13.6971,9.48524801 13.5856333,9.45736513 C13.5451,9.44722591 13.5058333,9.43265077 13.4665667,9.41870933 C13.3975333,9.39462866 13.3304,9.36484468 13.2664333,9.33062478 C13.2259,9.30844522 13.1847333,9.28753306 13.1461,9.26155129 C13.0739,9.21275625 13.0074,9.1563568 12.9447,9.09488773 C12.9257,9.07587667 12.9029,9.06130153 12.8845333,9.04102308 C12.8003,8.94723521 12.7262,8.84204072 12.6679333,8.72480589 L12.4975667,8.38387435 C12.2714667,7.93141129 12.3050333,7.38896258 12.5862333,6.9669172 C12.8490667,6.572121 13.2879667,6.33701765 13.7617,6.33701765 L19,6.33701765 C19.1247667,6.33701765 19.2476333,6.29962924 19.3515,6.23055575 L24.4137333,2.85419275 C24.7259667,2.64507117 25.0901333,2.53480706 25.4669667,2.53480706 L30.4,2.53480706 L30.4,12.2266418 Z M36.7333333,13.9414388 L31.6666667,13.9414388 L31.6666667,1.26740353 L36.7333333,1.26740353 L36.7333333,13.9414388 Z"></path>
                    </g>
                </g>
                <g id="box-closed-(1)-copy" mask="url(#mask-2)" stroke="#000000" fill-rule="nonzero" stroke-width="0.7" fill="#000000" stroke-linecap="round" stroke-linejoin="round">
                    <g transform="translate(22.000000, 10.500000) scale(-1, 1) translate(-22.000000, -10.500000) translate(13.000000, 1.000000)" id="Shape">
                        <path d="M17.979713,3.62702976 L17.992251,3.59303114 L9.00409065,0 L0.0305634901,3.63029689 L0.0012637787,3.61838547 L0.0012637787,3.6416638 L0,3.64237849 L0.0012637787,3.64629224 L0.0012637787,15.1714835 L9,18.7809524 L18,15.1713133 L18,3.61855563 L17.979713,3.62702976 Z M8.9957098,0.706347668 L12.0442766,1.82360556 L3.73376765,5.12531721 L0.918634084,3.988967 L8.9957098,0.706347668 Z M8.67923301,17.9667552 L5.30890151,16.5743434 L3.61746675,15.9240815 L0.644394107,14.723852 L0.644394107,4.58545727 L3.58763492,5.77350308 L3.58763492,8.30859524 L3.84993552,8.23365534 L4.02719711,8.48291048 L4.27399979,8.42396592 L4.51302025,8.68234181 L4.72161025,8.60879725 L5.05834075,8.9505191 L5.05834075,6.36706654 L5.32030878,6.47290809 L8.67926627,7.8285647 L8.67926627,17.9667552 L8.67923301,17.9667552 Z M9.00073166,7.25157514 L5.71464099,5.92488031 L13.8191873,2.56367959 L17.1616824,3.95711244 L9.00073166,7.25157514 Z M17.357302,14.723852 L9.32193099,17.9667552 L9.32193099,7.82859873 L17.3565371,4.58525308 L17.3565371,14.7236138 L17.357302,14.723852 L17.357302,14.723852 Z"></path>
                    </g>
                </g>
            </g>
        </g>
    </g>
</svg>